<svg width="68" height="60" viewBox="0 0 68 60" fill="none" xmlns="http://www.w3.org/2000/svg">
<path d="M57.3334 53.3333H10.6667V56.6667C10.6667 57.5507 10.3156 58.3986 9.69044 59.0237C9.06532 59.6488 8.21747 60 7.33342 60H4.00008C3.11603 60 2.26818 59.6488 1.64306 59.0237C1.01794 58.3986 0.666748 57.5507 0.666748 56.6667V23.3333L8.93342 4.04C9.44783 2.84 10.3033 1.81746 11.3936 1.09927C12.4839 0.381074 13.7611 -0.00115856 15.0668 2.63789e-06H52.9334C54.2379 0.000146707 55.5137 0.38299 56.6027 1.1011C57.6917 1.81922 58.5461 2.84105 59.0601 4.04L67.3334 23.3333V56.6667C67.3334 57.5507 66.9822 58.3986 66.3571 59.0237C65.732 59.6488 64.8841 60 64.0001 60H60.6668C59.7827 60 58.9349 59.6488 58.3097 59.0237C57.6846 58.3986 57.3334 57.5507 57.3334 56.6667V53.3333ZM60.6668 30H7.33342V46.6667H60.6668V30ZM7.92008 23.3333H60.0801L52.9368 6.66667H15.0668L7.92008 23.3333ZM15.6668 43.3333C14.3407 43.3333 13.0689 42.8065 12.1312 41.8689C11.1935 40.9312 10.6667 39.6594 10.6667 38.3333C10.6667 37.0073 11.1935 35.7355 12.1312 34.7978C13.0689 33.8601 14.3407 33.3333 15.6668 33.3333C16.9928 33.3333 18.2646 33.8601 19.2023 34.7978C20.14 35.7355 20.6668 37.0073 20.6668 38.3333C20.6668 39.6594 20.14 40.9312 19.2023 41.8689C18.2646 42.8065 16.9928 43.3333 15.6668 43.3333ZM52.3334 43.3333C51.0073 43.3333 49.7356 42.8065 48.7979 41.8689C47.8602 40.9312 47.3334 39.6594 47.3334 38.3333C47.3334 37.0073 47.8602 35.7355 48.7979 34.7978C49.7356 33.8601 51.0073 33.3333 52.3334 33.3333C53.6595 33.3333 54.9313 33.8601 55.869 34.7978C56.8066 35.7355 57.3334 37.0073 57.3334 38.3333C57.3334 39.6594 56.8066 40.9312 55.869 41.8689C54.9313 42.8065 53.6595 43.3333 52.3334 43.3333Z" fill="white"/>
</svg>
